<svg width="107" height="35" fill="none" xmlns="http://www.w3.org/2000/svg"><path d="M26.3 12.36H13.841v3.697h8.835c-.437 5.183-4.75 7.393-8.82 7.393-5.208 0-9.753-4.097-9.753-9.84 0-5.595 4.332-9.903 9.764-9.903 4.191 0 6.66 2.671 6.66 2.671l2.59-2.68S19.794 0 13.735 0C6.021 0 .052 6.51.052 13.544c0 6.89 5.614 13.61 13.88 13.61 7.27 0 12.593-4.98 12.593-12.343 0-1.554-.226-2.451-.226-2.451z" fill="#4885ED"/><path d="M36.504 9.684c-5.112 0-8.775 3.996-8.775 8.656 0 4.729 3.553 8.799 8.835 8.799 4.781 0 8.699-3.654 8.699-8.698 0-5.78-4.557-8.757-8.76-8.757zm.05 3.428c2.514 0 4.896 2.032 4.896 5.306 0 3.205-2.371 5.295-4.907 5.295-2.786 0-4.983-2.23-4.983-5.32 0-3.023 2.17-5.281 4.995-5.281z" fill="#DB3236"/><path d="M55.588 9.684c-5.111 0-8.775 3.996-8.775 8.656 0 4.729 3.554 8.799 8.835 8.799 4.782 0 8.699-3.654 8.699-8.698 0-5.78-4.556-8.757-8.759-8.757zm.051 3.428c2.514 0 4.896 2.032 4.896 5.306 0 3.205-2.372 5.295-4.907 5.295-2.786 0-4.984-2.23-4.984-5.32 0-3.023 2.17-5.281 4.995-5.281z" fill="#F4C20D"/><path d="M74.307 9.693c-4.692 0-8.38 4.109-8.38 8.72 0 5.254 4.276 8.737 8.299 8.737 2.488 0 3.81-.987 4.787-2.12v1.72c0 3.012-1.828 4.815-4.588 4.815-2.666 0-4.004-1.982-4.469-3.107l-3.354 1.402c1.19 2.516 3.585 5.14 7.85 5.14 4.665 0 8.22-2.938 8.22-9.1V10.219h-3.659v1.478c-1.125-1.212-2.664-2.003-4.706-2.003zm.34 3.421c2.3 0 4.662 1.964 4.662 5.318 0 3.409-2.357 5.288-4.713 5.288-2.502 0-4.83-2.03-4.83-5.256 0-3.35 2.418-5.35 4.88-5.35z" fill="#4885ED"/><path d="M98.945 9.672c-4.426 0-8.142 3.52-8.142 8.716 0 5.497 4.142 8.758 8.567 8.758 3.693 0 5.96-2.02 7.313-3.83l-3.018-2.008c-.783 1.215-2.092 2.403-4.276 2.403-2.454 0-3.582-1.344-4.281-2.645l11.703-4.856-.607-1.423c-1.131-2.787-3.768-5.114-7.258-5.114h-.001zm.153 3.357c1.594 0 2.742.848 3.229 1.864l-7.816 3.267c-.337-2.53 2.06-5.131 4.587-5.131z" fill="#DB3236"/><path d="M85.223 26.628h3.845V.902h-3.845v25.725z" fill="#3CBA54"/></svg>